<svg version="1.1" id="Layer_1" xmlns="http://www.w3.org/2000/svg" x="0px" y="0px"
	 width="600px" height="465px" viewBox="0 0 600 465" enable-background="new 0 0 600 465" xml:space="preserve">
<g>
	
		<linearGradient id="SVGID_1_"  x1="-3494.2686" y1="-69.6553" x2="-3494.2686" y2="-69.6484" gradientTransform="matrix(9025 0 0 21025 31535848 1464817)">
		<stop  offset="0" style="stop-color:#76A1F0"/>
		<stop  offset="1" style="stop-color:#6B90D5"/>
	</linearGradient>
	<path fill="url(#SVGID_1_)" d="M27.5,318.5h95v145h-95V318.5z"/>
	
		<linearGradient id="SVGID_2_"  x1="-3494.2402" y1="-69.8511" x2="-3494.2402" y2="-69.8438" gradientTransform="matrix(7225 0 0 18225 25245960 1273361)">
		<stop  offset="0" style="stop-color:#BBE0F7"/>
		<stop  offset="1" style="stop-color:#82B4FB"/>
	</linearGradient>
	<path fill="url(#SVGID_2_)" d="M32.5,323.5h85v135h-85V323.5z"/>
	
		<linearGradient id="SVGID_3_"  x1="-3494.2036" y1="-70.0796" x2="-3494.2036" y2="-70.0713" gradientTransform="matrix(5625 0 0 15625 19654968 1095321)">
		<stop  offset="0" style="stop-color:#95BFF8"/>
		<stop  offset="1" style="stop-color:#7CA4EB"/>
	</linearGradient>
	<path fill="url(#SVGID_3_)" d="M37.5,328.5h75v125h-75V328.5z"/>
	<path fill="#E9FAF8" d="M47.5,363.5h55v35h-55V363.5z"/>
	<path fill="#70A034" d="M52.5,378.5h5v5h-5V378.5z"/>
	<path fill="#6B90D5" d="M62.5,368.5h35v5h-35V368.5z"/>
	<path fill="#6B90D5" d="M62.5,378.5h35v5h-35V378.5z"/>
	<path fill="#6B90D5" d="M62.5,388.5h35v5h-35V388.5z"/>
	<path fill="#70A034" d="M52.5,388.5h5v5h-5V388.5z"/>
	<path fill="#70A034" d="M52.5,368.5h5v5h-5V368.5z"/>
	<path fill="#E9FAF8" d="M47.5,408.5h55v35h-55V408.5z"/>
	<path fill="#6B90D5" d="M62.5,413.5h35v5h-35V413.5z"/>
	<path fill="#6B90D5" d="M62.5,423.5h35v5h-35V423.5z"/>
	<path fill="#6B90D5" d="M62.5,433.5h35v5h-35V433.5z"/>
	<path fill="#70A034" d="M52.5,433.5h5v5h-5V433.5z"/>
	<path fill="#70A034" d="M52.5,413.5h5v5h-5V413.5z"/>
	<path fill="#70A034" d="M52.5,423.5h5v5h-5V423.5z"/>
	<path fill="#E9FAF8" d="M47.5,338.5h15v15h-15V338.5z"/>
	<path fill="#E9FAF8" d="M67.5,338.5h35v10h-35V338.5z"/>
</g>
<g>
	
		<linearGradient id="SVGID_4_"  x1="-3495.8472" y1="-69.6553" x2="-3495.8472" y2="-69.6484" gradientTransform="matrix(9025 0 0 21025 31550248 1464817)">
		<stop  offset="0" style="stop-color:#76A1F0"/>
		<stop  offset="1" style="stop-color:#6B90D5"/>
	</linearGradient>
	<path fill="url(#SVGID_4_)" d="M177.5,318.5h95v145h-95V318.5z"/>
	
		<linearGradient id="SVGID_5_"  x1="-3496.0049" y1="-69.8511" x2="-3496.0049" y2="-69.8438" gradientTransform="matrix(7225 0 0 18225 25258860 1273361)">
		<stop  offset="0" style="stop-color:#BBE0F7"/>
		<stop  offset="1" style="stop-color:#82B4FB"/>
	</linearGradient>
	<path fill="url(#SVGID_5_)" d="M182.5,323.5h85v135h-85V323.5z"/>
	
		<linearGradient id="SVGID_6_"  x1="-3496.2031" y1="-70.0796" x2="-3496.2031" y2="-70.0713" gradientTransform="matrix(5625 0 0 15625 19666368 1095321)">
		<stop  offset="0" style="stop-color:#95BFF8"/>
		<stop  offset="1" style="stop-color:#7CA4EB"/>
	</linearGradient>
	<path fill="url(#SVGID_6_)" d="M187.5,328.5h75v125h-75V328.5z"/>
	<path fill="#E9FAF8" d="M197.5,363.5h55v35h-55V363.5z"/>
	<path fill="#70A034" d="M202.5,378.5h5v5h-5V378.5z"/>
	<path fill="#6B90D5" d="M212.5,368.5h35v5h-35V368.5z"/>
	<path fill="#6B90D5" d="M212.5,378.5h35v5h-35V378.5z"/>
	<path fill="#6B90D5" d="M212.5,388.5h35v5h-35V388.5z"/>
	<path fill="#70A034" d="M202.5,388.5h5v5h-5V388.5z"/>
	<path fill="#70A034" d="M202.5,368.5h5v5h-5V368.5z"/>
	<path fill="#E9FAF8" d="M197.5,408.5h55v35h-55V408.5z"/>
	<path fill="#6B90D5" d="M212.5,413.5h35v5h-35V413.5z"/>
	<path fill="#6B90D5" d="M212.5,423.5h35v5h-35V423.5z"/>
	<path fill="#6B90D5" d="M212.5,433.5h35v5h-35V433.5z"/>
	<path fill="#EA5B03" d="M202.5,433.5h5v5h-5V433.5z"/>
	<path fill="#70A034" d="M202.5,413.5h5v5h-5V413.5z"/>
	<path fill="#EA5B03" d="M202.5,423.5h5v5h-5V423.5z"/>
	<path fill="#E9FAF8" d="M197.5,338.5h15v15h-15V338.5z"/>
	<path fill="#E9FAF8" d="M217.5,338.5h35v10h-35V338.5z"/>
</g>
<g>
	
		<linearGradient id="SVGID_7_"  x1="-3497.4263" y1="-69.6553" x2="-3497.4263" y2="-69.6484" gradientTransform="matrix(9025 0 0 21025 31564648 1464817)">
		<stop  offset="0" style="stop-color:#76A1F0"/>
		<stop  offset="1" style="stop-color:#6B90D5"/>
	</linearGradient>
	<path fill="url(#SVGID_7_)" d="M327.5,318.5h95v145h-95V318.5z"/>
	
		<linearGradient id="SVGID_8_"  x1="-3497.77" y1="-69.8511" x2="-3497.77" y2="-69.8438" gradientTransform="matrix(7225 0 0 18225 25271760 1273361)">
		<stop  offset="0" style="stop-color:#BBE0F7"/>
		<stop  offset="1" style="stop-color:#82B4FB"/>
	</linearGradient>
	<path fill="url(#SVGID_8_)" d="M332.5,323.5h85v135h-85V323.5z"/>
	
		<linearGradient id="SVGID_9_"  x1="-3498.2036" y1="-70.0796" x2="-3498.2036" y2="-70.0713" gradientTransform="matrix(5625 0 0 15625 19677768 1095321)">
		<stop  offset="0" style="stop-color:#95BFF8"/>
		<stop  offset="1" style="stop-color:#7CA4EB"/>
	</linearGradient>
	<path fill="url(#SVGID_9_)" d="M337.5,328.5h75v125h-75V328.5z"/>
	<path fill="#E9FAF8" d="M347.5,363.5h55v35h-55V363.5z"/>
	<path fill="#70A034" d="M352.5,378.5h5v5h-5V378.5z"/>
	<path fill="#6B90D5" d="M362.5,368.5h35v5h-35V368.5z"/>
	<path fill="#6B90D5" d="M362.5,378.5h35v5h-35V378.5z"/>
	<path fill="#6B90D5" d="M362.5,388.5h35v5h-35V388.5z"/>
	<path fill="#EA5B03" d="M352.5,388.5h5v5h-5V388.5z"/>
	<path fill="#70A034" d="M352.5,368.5h5v5h-5V368.5z"/>
	<path fill="#E9FAF8" d="M347.5,408.5h55v35h-55V408.5z"/>
	<path fill="#6B90D5" d="M362.5,413.5h35v5h-35V413.5z"/>
	<path fill="#6B90D5" d="M362.5,423.5h35v5h-35V423.5z"/>
	<path fill="#6B90D5" d="M362.5,433.5h35v5h-35V433.5z"/>
	<path fill="#EA5B03" d="M352.5,433.5h5v5h-5V433.5z"/>
	<path fill="#EA5B03" d="M352.5,413.5h5v5h-5V413.5z"/>
	<path fill="#EA5B03" d="M352.5,423.5h5v5h-5V423.5z"/>
	<path fill="#E9FAF8" d="M347.5,338.5h15v15h-15V338.5z"/>
	<path fill="#E9FAF8" d="M367.5,338.5h35v10h-35V338.5z"/>
</g>
<g>
	
		<linearGradient id="SVGID_10_"  x1="-3499.0054" y1="-69.6553" x2="-3499.0054" y2="-69.6484" gradientTransform="matrix(9025 0 0 21025 31579048 1464817)">
		<stop  offset="0" style="stop-color:#76A1F0"/>
		<stop  offset="1" style="stop-color:#6B90D5"/>
	</linearGradient>
	<path fill="url(#SVGID_10_)" d="M477.5,318.5h95v145h-95V318.5z"/>
	
		<linearGradient id="SVGID_11_"  x1="-3499.5342" y1="-69.8511" x2="-3499.5342" y2="-69.8438" gradientTransform="matrix(7225 0 0 18225 25284660 1273361)">
		<stop  offset="0" style="stop-color:#BBE0F7"/>
		<stop  offset="1" style="stop-color:#82B4FB"/>
	</linearGradient>
	<path fill="url(#SVGID_11_)" d="M482.5,323.5h85v135h-85V323.5z"/>
	
		<linearGradient id="SVGID_12_"  x1="-3500.2026" y1="-70.0796" x2="-3500.2026" y2="-70.0713" gradientTransform="matrix(5625 0 0 15625 19689168 1095321)">
		<stop  offset="0" style="stop-color:#95BFF8"/>
		<stop  offset="1" style="stop-color:#7CA4EB"/>
	</linearGradient>
	<path fill="url(#SVGID_12_)" d="M487.5,328.5h75v125h-75V328.5z"/>
	<path fill="#E9FAF8" d="M497.5,363.5h55v35h-55V363.5z"/>
	<path fill="#EA5B03" d="M502.5,378.5h5v5h-5V378.5z"/>
	<path fill="#6B90D5" d="M512.5,368.5h35v5h-35V368.5z"/>
	<path fill="#6B90D5" d="M512.5,378.5h35v5h-35V378.5z"/>
	<path fill="#6B90D5" d="M512.5,388.5h35v5h-35V388.5z"/>
	<path fill="#EA5B03" d="M502.5,388.5h5v5h-5V388.5z"/>
	<path fill="#EA5B03" d="M502.5,368.5h5v5h-5V368.5z"/>
	<path fill="#E9FAF8" d="M497.5,408.5h55v35h-55V408.5z"/>
	<path fill="#6B90D5" d="M512.5,413.5h35v5h-35V413.5z"/>
	<path fill="#6B90D5" d="M512.5,423.5h35v5h-35V423.5z"/>
	<path fill="#6B90D5" d="M512.5,433.5h35v5h-35V433.5z"/>
	<path fill="#EA5B03" d="M502.5,433.5h5v5h-5V433.5z"/>
	<path fill="#EA5B03" d="M502.5,413.5h5v5h-5V413.5z"/>
	<path fill="#EA5B03" d="M502.5,423.5h5v5h-5V423.5z"/>
	<path fill="#E9FAF8" d="M497.5,338.5h15v15h-15V338.5z"/>
	<path fill="#E9FAF8" d="M517.5,338.5h35v10h-35V338.5z"/>
</g>
<g>
	
		<linearGradient id="SVGID_13_"  x1="-3496.6367" y1="-67.793" x2="-3496.6367" y2="-67.7861" gradientTransform="matrix(9025 0 0 21025 31557448 1425393)">
		<stop  offset="0" style="stop-color:#76A1F0"/>
		<stop  offset="1" style="stop-color:#6B90D5"/>
	</linearGradient>
	<path fill="url(#SVGID_13_)" d="M252.5,48.5h95v145h-95V48.5z"/>
	
		<linearGradient id="SVGID_14_"  x1="-3496.8872" y1="-67.8521" x2="-3496.8872" y2="-67.8442" gradientTransform="matrix(7225 0 0 18225 25265310 1236657)">
		<stop  offset="0" style="stop-color:#BBE0F7"/>
		<stop  offset="1" style="stop-color:#82B4FB"/>
	</linearGradient>
	<path fill="url(#SVGID_14_)" d="M257.5,53.5h85v135h-85V53.5z"/>
	
		<linearGradient id="SVGID_15_"  x1="-3497.2026" y1="-67.9194" x2="-3497.2026" y2="-67.9116" gradientTransform="matrix(5625 0 0 15625 19672066 1061305)">
		<stop  offset="0" style="stop-color:#95BFF8"/>
		<stop  offset="1" style="stop-color:#7CA4EB"/>
	</linearGradient>
	<path fill="url(#SVGID_15_)" d="M262.5,58.5h75v125h-75V58.5z"/>
	<path fill="#E9FAF8" d="M272.5,93.5h55v45h-55V93.5z"/>
	<path fill="#70A034" d="M277.5,108.5h5v5h-5V108.5z"/>
	<path fill="#6B90D5" d="M287.5,98.5h35v5h-35V98.5z"/>
	<path fill="#6B90D5" d="M287.5,108.5h35v5h-35V108.5z"/>
	<path fill="#6B90D5" d="M287.5,118.5h35v5h-35V118.5z"/>
	<path fill="#EA5B03" d="M277.5,118.5h5v5h-5V118.5z"/>
	<path fill="#70A034" d="M277.5,98.5h5v5h-5V98.5z"/>
	<path fill="#E9FAF8" d="M272.5,68.5h15v15h-15V68.5z"/>
	<path fill="#E9FAF8" d="M292.5,68.5h35v10h-35V68.5z"/>
	<path fill="#6B90D5" d="M287.5,128.5h35v5h-35V128.5z"/>
	<path fill="#EA5B03" d="M277.5,128.5h5v5h-5V128.5z"/>
</g>
<g>
	<path fill="#859392" stroke="#859392" stroke-width="0.625" stroke-linejoin="round" d="M208.029,207.163l38.861-7.606
		l-24.676,30.97C223.102,220.548,217.343,211.13,208.029,207.163z"/>
	<path fill="#859392" stroke="#859392" stroke-width="0.625" stroke-linejoin="round" d="M317.398,246.109l-0.657-39.593
		l26.149,29.735C333.225,233.624,322.939,237.637,317.398,246.109z"/>
	<path fill="#859392" stroke="#859392" stroke-width="0.625" stroke-linejoin="round" d="M254.007,236.213l26.15-29.735
		L279.5,246.07C274.116,237.623,263.807,233.673,254.007,236.213z"/>
	<path fill="#859392" stroke="#859392" stroke-width="0.625" stroke-linejoin="round" d="M378.729,230.62l-24.676-30.97
		l38.861,7.606C383.652,211.071,377.952,220.525,378.729,230.62z"/>
</g>
</svg>
