<svg enable-background="new" height="600" viewBox="0 0 158.75 158.75" width="600" xmlns="http://www.w3.org/2000/svg" xmlns:xlink="http://www.w3.org/1999/xlink"><marker id="a" orient="auto" overflow="visible" refX="0" refY="0"><path d="m8.7185878 4.0337352-10.9258773-4.01772194 10.9258779-4.01772106c-1.7454984 2.3720609-1.7354408 5.6174519-.0000006 8.035443z" fill="#859392" fill-rule="evenodd" stroke="#859392" stroke-linejoin="round" stroke-width=".625" transform="scale(-.6)"/></marker><marker id="b" orient="auto" overflow="visible" refX="0" refY="0"><path d="m8.7185878 4.0337352-10.9258773-4.01772194 10.9258779-4.01772106c-1.7454984 2.3720609-1.7354408 5.6174519-.0000006 8.035443z" fill="#859392" fill-rule="evenodd" stroke="#859392" stroke-linejoin="round" stroke-width=".625" transform="scale(-.6)"/></marker><marker id="c" orient="auto" overflow="visible" refX="0" refY="0"><path d="m8.7185878 4.0337352-10.9258773-4.01772194 10.9258779-4.01772106c-1.7454984 2.3720609-1.7354408 5.6174519-.0000006 8.035443z" fill="#859392" fill-rule="evenodd" stroke="#859392" stroke-linejoin="round" stroke-width=".625" transform="scale(-.6)"/></marker><marker id="d" orient="auto" overflow="visible" refX="0" refY="0"><path d="m8.7185878 4.0337352-10.9258773-4.01772194 10.9258779-4.01772106c-1.7454984 2.3720609-1.7354408 5.6174519-.0000006 8.035443z" fill="#859392" fill-rule="evenodd" stroke="#859392" stroke-linejoin="round" stroke-width=".625" transform="scale(-.6)"/></marker><linearGradient id="e"><stop offset="0" stop-color="#95bff8"/><stop offset="1" stop-color="#7ca4eb"/></linearGradient><linearGradient id="f"><stop offset="0" stop-color="#bbe0f7"/><stop offset="1" stop-color="#82b4fb"/></linearGradient><linearGradient id="g"><stop offset="0" stop-color="#76a1f0"/><stop offset="1" stop-color="#6b90d5"/></linearGradient><linearGradient id="h" x1="77.91897" x2="77.91897" xlink:href="#g" y1="40.196968" y2="76.011082"/><linearGradient id="i" x1="72.098963" x2="72.098963" xlink:href="#f" y1="40.094807" y2="75.813557"/><linearGradient id="j" x1="73.421881" x2="73.421881" xlink:href="#e" y1="41.417721" y2="74.490643"/><linearGradient id="k" x1="38.231469" x2="38.231469" xlink:href="#g" y1="40.196968" y2="76.011082"/><linearGradient id="l" x1="32.411462" x2="32.411462" xlink:href="#f" y1="40.094807" y2="75.813557"/><linearGradient id="m" x1="33.73438" x2="33.73438" xlink:href="#e" y1="41.417721" y2="74.490643"/><linearGradient id="n" x1="-1.456026" x2="-1.456026" xlink:href="#g" y1="40.196968" y2="76.011082"/><linearGradient id="o" x1="-7.276033" x2="-7.276033" xlink:href="#f" y1="40.094807" y2="75.813557"/><linearGradient id="p" x1="-5.953115" x2="-5.953115" xlink:href="#e" y1="41.417721" y2="74.490643"/><linearGradient id="q" x1="-41.14353" x2="-41.14353" xlink:href="#g" y1="40.196968" y2="76.011082"/><linearGradient id="r" x1="-46.963537" x2="-46.963537" xlink:href="#f" y1="40.094807" y2="75.813557"/><linearGradient id="s" x1="-45.640619" x2="-45.640619" xlink:href="#e" y1="41.417721" y2="74.490643"/><linearGradient id="t" x1="47.4919" x2="47.4919" xlink:href="#g" y1="212.176171" y2="247.990285"/><linearGradient id="u" x1="41.671893" x2="41.671893" xlink:href="#f" y1="212.07401" y2="247.79276"/><linearGradient id="v" x1="42.994811" x2="42.994811" xlink:href="#e" y1="213.396924" y2="246.469846"/><filter id="w" color-interpolation-filters="sRGB"><feBlend in2="BackgroundImage"/></filter><g filter="url(#w)" transform="translate(0 -138.24998)"><g fill-rule="evenodd" transform="translate(1.984367 -10.980211)"><g transform="translate(-30.42708 171.97914)"><path d="m35.71875 61.520836h25.135416v38.364586h-25.135416z" fill="url(#h)"/><path d="m37.041668 62.84375h22.489584v35.71875h-22.489584z" fill="url(#i)"/><path d="m38.364582 64.166664h19.84375v33.072918h-19.84375z" fill="url(#j)"/><path d="m41.010418 73.427086h14.552083v9.260417h-14.552083z" fill="#e9faf8"/><path d="m42.333332 77.395836h1.322919v1.322917h-1.322919z" fill="#70a034"/><g fill="#6b90d5"><path d="m44.979168 74.75h9.260415v1.322917h-9.260415z"/><path d="m44.979168 77.395836h9.260416v1.322917h-9.260416z"/><path d="m44.979168 80.041672h9.260416v1.322917h-9.260416z"/></g><path d="m42.333332 80.041672h1.322919v1.322917h-1.322919z" fill="#70a034"/><path d="m42.333332 74.75h1.322919v1.322917h-1.322919z" fill="#70a034"/><path d="m41.010414 85.333336h14.552083v9.260417h-14.552083z" fill="#e9faf8"/><path d="m44.979164 86.65625h9.260416v1.322917h-9.260416z" fill="#6b90d5"/><path d="m44.979164 89.302086h9.260416v1.322917h-9.260416z" fill="#6b90d5"/><path d="m44.979164 91.947922h9.260416v1.322917h-9.260416z" fill="#6b90d5"/><g fill="#70a034"><path d="m42.333328 91.947922h1.322919v1.322917h-1.322919z"/><path d="m42.333332 86.65625h1.322919v1.322917h-1.322919z"/><path d="m42.333332 89.302086h1.322919v1.322917h-1.322919z"/></g><path d="m41.010418 66.8125h3.96875v3.96875h-3.96875z" fill="#e9faf8"/><path d="m46.302082 66.8125h9.260417v2.645833h-9.260417z" fill="#e9faf8"/></g><g transform="translate(9.260422 171.97914)"><path d="m35.71875 61.520836h25.135416v38.364586h-25.135416z" fill="url(#k)"/><path d="m37.041668 62.84375h22.489584v35.71875h-22.489584z" fill="url(#l)"/><path d="m38.364582 64.166664h19.84375v33.072918h-19.84375z" fill="url(#m)"/><path d="m41.010418 73.427086h14.552083v9.260417h-14.552083z" fill="#e9faf8"/><path d="m42.333332 77.395836h1.322919v1.322917h-1.322919z" fill="#70a034"/><g fill="#6b90d5"><path d="m44.979168 74.75h9.260415v1.322917h-9.260415z"/><path d="m44.979168 77.395836h9.260416v1.322917h-9.260416z"/><path d="m44.979168 80.041672h9.260416v1.322917h-9.260416z"/></g><path d="m42.333332 80.041672h1.322919v1.322917h-1.322919z" fill="#70a034"/><path d="m42.333332 74.75h1.322919v1.322917h-1.322919z" fill="#70a034"/><path d="m41.010414 85.333336h14.552083v9.260417h-14.552083z" fill="#e9faf8"/><g fill="#6b90d5"><path d="m44.979164 86.65625h9.260416v1.322917h-9.260416z"/><path d="m44.979164 89.302086h9.260416v1.322917h-9.260416z"/><path d="m44.979164 91.947922h9.260416v1.322917h-9.260416z"/></g><path d="m42.333328 91.947922h1.322919v1.322917h-1.322919z" fill="#ea5b03"/><path d="m42.333332 86.65625h1.322919v1.322917h-1.322919z" fill="#70a034"/><path d="m42.333332 89.302086h1.322919v1.322917h-1.322919z" fill="#ea5b03"/><path d="m41.010418 66.8125h3.96875v3.96875h-3.96875z" fill="#e9faf8"/><path d="m46.302082 66.8125h9.260417v2.645833h-9.260417z" fill="#e9faf8"/></g><g transform="translate(48.947917 171.97914)"><path d="m35.71875 61.520836h25.135416v38.364586h-25.135416z" fill="url(#n)"/><path d="m37.041668 62.84375h22.489584v35.71875h-22.489584z" fill="url(#o)"/><path d="m38.364582 64.166664h19.84375v33.072918h-19.84375z" fill="url(#p)"/><path d="m41.010418 73.427086h14.552083v9.260417h-14.552083z" fill="#e9faf8"/><path d="m42.333332 77.395836h1.322919v1.322917h-1.322919z" fill="#70a034"/><g fill="#6b90d5"><path d="m44.979168 74.75h9.260415v1.322917h-9.260415z"/><path d="m44.979168 77.395836h9.260416v1.322917h-9.260416z"/><path d="m44.979168 80.041672h9.260416v1.322917h-9.260416z"/></g><path d="m42.333332 80.041672h1.322919v1.322917h-1.322919z" fill="#ea5b03"/><path d="m42.333332 74.75h1.322919v1.322917h-1.322919z" fill="#70a034"/><path d="m41.010414 85.333336h14.552083v9.260417h-14.552083z" fill="#e9faf8"/><g fill="#6b90d5"><path d="m44.979164 86.65625h9.260416v1.322917h-9.260416z"/><path d="m44.979164 89.302086h9.260416v1.322917h-9.260416z"/><path d="m44.979164 91.947922h9.260416v1.322917h-9.260416z"/></g><path d="m42.333328 91.947922h1.322919v1.322917h-1.322919z" fill="#ea5b03"/><path d="m42.333332 86.65625h1.322919v1.322917h-1.322919z" fill="#ea5b03"/><path d="m42.333332 89.302086h1.322919v1.322917h-1.322919z" fill="#ea5b03"/><path d="m41.010418 66.8125h3.96875v3.96875h-3.96875z" fill="#e9faf8"/><path d="m46.302082 66.8125h9.260417v2.645833h-9.260417z" fill="#e9faf8"/></g><g transform="translate(88.63543 171.97914)"><path d="m35.71875 61.520836h25.135416v38.364586h-25.135416z" fill="url(#q)"/><path d="m37.041668 62.84375h22.489584v35.71875h-22.489584z" fill="url(#r)"/><path d="m38.364582 64.166664h19.84375v33.072918h-19.84375z" fill="url(#s)"/><path d="m41.010418 73.427086h14.552083v9.260417h-14.552083z" fill="#e9faf8"/><path d="m42.333332 77.395836h1.322919v1.322917h-1.322919z" fill="#ea5b03"/><g fill="#6b90d5"><path d="m44.979168 74.75h9.260415v1.322917h-9.260415z"/><path d="m44.979168 77.395836h9.260416v1.322917h-9.260416z"/><path d="m44.979168 80.041672h9.260416v1.322917h-9.260416z"/></g><path d="m42.333332 80.041672h1.322919v1.322917h-1.322919z" fill="#ea5b03"/><path d="m42.333332 74.75h1.322919v1.322917h-1.322919z" fill="#ea5b03"/><path d="m41.010414 85.333336h14.552083v9.260417h-14.552083z" fill="#e9faf8"/><path d="m44.979164 86.65625h9.260416v1.322917h-9.260416z" fill="#6b90d5"/><path d="m44.979164 89.302086h9.260416v1.322917h-9.260416z" fill="#6b90d5"/><path d="m44.979164 91.947922h9.260416v1.322917h-9.260416z" fill="#6b90d5"/><g fill="#ea5b03"><path d="m42.333328 91.947922h1.322919v1.322917h-1.322919z"/><path d="m42.333332 86.65625h1.322919v1.322917h-1.322919z"/><path d="m42.333332 89.302086h1.322919v1.322917h-1.322919z"/></g><path d="m41.010418 66.8125h3.96875v3.96875h-3.96875z" fill="#e9faf8"/><path d="m46.302082 66.8125h9.260417v2.645833h-9.260417z" fill="#e9faf8"/></g><path d="m64.822922 162.06248h25.135416v38.364586h-25.135416z" fill="url(#t)"/><path d="m66.145844 163.38541h22.489584v35.71875h-22.489584z" fill="url(#u)"/><path d="m67.468758 164.70831h19.84375v33.072918h-19.84375z" fill="url(#v)"/><path d="m70.114594 173.96873h14.552083v11.906248h-14.552083z" fill="#e9faf8"/><path d="m71.437508 177.93748h1.322919v1.322917h-1.322919z" fill="#70a034"/><g fill="#6b90d5"><path d="m74.083344 175.29166h9.260415v1.322917h-9.260415z"/><path d="m74.083344 177.93748h9.260416v1.322917h-9.260416z"/><path d="m74.083344 180.58331h9.260416v1.322917h-9.260416z"/></g><path d="m71.437508 180.58331h1.322919v1.322917h-1.322919z" fill="#ea5b03"/><path d="m71.437508 175.29166h1.322919v1.322917h-1.322919z" fill="#70a034"/><path d="m70.114594 167.35416h3.96875v3.96875h-3.96875z" fill="#e9faf8"/><path d="m75.406258 167.35416h9.260417v2.645833h-9.260417z" fill="#e9faf8"/><path d="m74.083336 183.22914h9.260416v1.322917h-9.260416z" fill="#6b90d5"/><path d="m71.4375 183.22914h1.322919v1.322917h-1.322919z" fill="#ea5b03"/><g fill="#859392" stroke="#859392" stroke-linecap="square" stroke-miterlimit="1" stroke-width="1.5"><path d="m24.606253 225.56254 37.041663-22.48964" marker-end="url(#d)"/><path d="m90.22292 225.56254-7.67292-19.84381" marker-end="url(#c)"/><path d="m63.764587 225.56254 7.672913-19.84381" marker-end="url(#b)"/><path d="m130.43958 225.56254-37.04166-22.48964" marker-end="url(#a)"/></g></g></g></svg>