<svg enable-background="new 0 0 600 465" height="465" viewBox="0 0 600 465" width="600" xmlns="http://www.w3.org/2000/svg" xmlns:xlink="http://www.w3.org/1999/xlink"><linearGradient id="a"><stop offset="0" stop-color="#76a1f0"/><stop offset="1" stop-color="#6b90d5"/></linearGradient><linearGradient id="b" gradientTransform="matrix(9025 0 0 21025 31535848 1464817)" x1="-3494.2686" x2="-3494.2686" xlink:href="#a" y1="-69.6553" y2="-69.6484"/><linearGradient id="c"><stop offset="0" stop-color="#bbe0f7"/><stop offset="1" stop-color="#82b4fb"/></linearGradient><linearGradient id="d" gradientTransform="matrix(7225 0 0 18225 25245960 1273361)" x1="-3494.2402" x2="-3494.2402" xlink:href="#c" y1="-69.8511" y2="-69.8438"/><linearGradient id="e"><stop offset="0" stop-color="#95bff8"/><stop offset="1" stop-color="#7ca4eb"/></linearGradient><linearGradient id="f" gradientTransform="matrix(5625 0 0 15625 19654968 1095321)" x1="-3494.2036" x2="-3494.2036" xlink:href="#e" y1="-70.0796" y2="-70.0713"/><linearGradient id="g" gradientTransform="matrix(9025 0 0 21025 31550248 1464817)" x1="-3495.8472" x2="-3495.8472" xlink:href="#a" y1="-69.6553" y2="-69.6484"/><linearGradient id="h" gradientTransform="matrix(7225 0 0 18225 25258860 1273361)" x1="-3496.0049" x2="-3496.0049" xlink:href="#c" y1="-69.8511" y2="-69.8438"/><linearGradient id="i" gradientTransform="matrix(5625 0 0 15625 19666368 1095321)" x1="-3496.2031" x2="-3496.2031" xlink:href="#e" y1="-70.0796" y2="-70.0713"/><linearGradient id="j" gradientTransform="matrix(9025 0 0 21025 31564648 1464817)" x1="-3497.4263" x2="-3497.4263" xlink:href="#a" y1="-69.6553" y2="-69.6484"/><linearGradient id="k" gradientTransform="matrix(7225 0 0 18225 25271760 1273361)" x1="-3497.77" x2="-3497.77" xlink:href="#c" y1="-69.8511" y2="-69.8438"/><linearGradient id="l" gradientTransform="matrix(5625 0 0 15625 19677768 1095321)" x1="-3498.2036" x2="-3498.2036" xlink:href="#e" y1="-70.0796" y2="-70.0713"/><linearGradient id="m" gradientTransform="matrix(9025 0 0 21025 31579048 1464817)" x1="-3499.0054" x2="-3499.0054" xlink:href="#a" y1="-69.6553" y2="-69.6484"/><linearGradient id="n" gradientTransform="matrix(7225 0 0 18225 25284660 1273361)" x1="-3499.5342" x2="-3499.5342" xlink:href="#c" y1="-69.8511" y2="-69.8438"/><linearGradient id="o" gradientTransform="matrix(5625 0 0 15625 19689168 1095321)" x1="-3500.2026" x2="-3500.2026" xlink:href="#e" y1="-70.0796" y2="-70.0713"/><linearGradient id="p" gradientTransform="matrix(9025 0 0 21025 31557448 1425393)" x1="-3496.6367" x2="-3496.6367" xlink:href="#a" y1="-67.793" y2="-67.7861"/><linearGradient id="q" gradientTransform="matrix(7225 0 0 18225 25265310 1236657)" x1="-3496.8872" x2="-3496.8872" xlink:href="#c" y1="-67.8521" y2="-67.8442"/><linearGradient id="r" gradientTransform="matrix(5625 0 0 15625 19672066 1061305)" x1="-3497.2026" x2="-3497.2026" xlink:href="#e" y1="-67.9194" y2="-67.9116"/><path d="m27.5 318.5h95v145h-95z" fill="url(#b)"/><path d="m32.5 323.5h85v135h-85z" fill="url(#d)"/><path d="m37.5 328.5h75v125h-75z" fill="url(#f)"/><path d="m47.5 363.5h55v35h-55z" fill="#e9faf8"/><path d="m52.5 378.5h5v5h-5z" fill="#70a034"/><path d="m62.5 368.5h35v5h-35z" fill="#6b90d5"/><path d="m62.5 378.5h35v5h-35z" fill="#6b90d5"/><path d="m62.5 388.5h35v5h-35z" fill="#6b90d5"/><path d="m52.5 388.5h5v5h-5z" fill="#70a034"/><path d="m52.5 368.5h5v5h-5z" fill="#70a034"/><path d="m47.5 408.5h55v35h-55z" fill="#e9faf8"/><path d="m62.5 413.5h35v5h-35z" fill="#6b90d5"/><path d="m62.5 423.5h35v5h-35z" fill="#6b90d5"/><path d="m62.5 433.5h35v5h-35z" fill="#6b90d5"/><path d="m52.5 433.5h5v5h-5z" fill="#70a034"/><path d="m52.5 413.5h5v5h-5z" fill="#70a034"/><path d="m52.5 423.5h5v5h-5z" fill="#70a034"/><path d="m47.5 338.5h15v15h-15z" fill="#e9faf8"/><path d="m67.5 338.5h35v10h-35z" fill="#e9faf8"/><path d="m177.5 318.5h95v145h-95z" fill="url(#g)"/><path d="m182.5 323.5h85v135h-85z" fill="url(#h)"/><path d="m187.5 328.5h75v125h-75z" fill="url(#i)"/><path d="m197.5 363.5h55v35h-55z" fill="#e9faf8"/><path d="m202.5 378.5h5v5h-5z" fill="#70a034"/><path d="m212.5 368.5h35v5h-35z" fill="#6b90d5"/><path d="m212.5 378.5h35v5h-35z" fill="#6b90d5"/><path d="m212.5 388.5h35v5h-35z" fill="#6b90d5"/><path d="m202.5 388.5h5v5h-5z" fill="#70a034"/><path d="m202.5 368.5h5v5h-5z" fill="#70a034"/><path d="m197.5 408.5h55v35h-55z" fill="#e9faf8"/><path d="m212.5 413.5h35v5h-35z" fill="#6b90d5"/><path d="m212.5 423.5h35v5h-35z" fill="#6b90d5"/><path d="m212.5 433.5h35v5h-35z" fill="#6b90d5"/><path d="m202.5 433.5h5v5h-5z" fill="#ea5b03"/><path d="m202.5 413.5h5v5h-5z" fill="#70a034"/><path d="m202.5 423.5h5v5h-5z" fill="#ea5b03"/><path d="m197.5 338.5h15v15h-15z" fill="#e9faf8"/><path d="m217.5 338.5h35v10h-35z" fill="#e9faf8"/><path d="m327.5 318.5h95v145h-95z" fill="url(#j)"/><path d="m332.5 323.5h85v135h-85z" fill="url(#k)"/><path d="m337.5 328.5h75v125h-75z" fill="url(#l)"/><path d="m347.5 363.5h55v35h-55z" fill="#e9faf8"/><path d="m352.5 378.5h5v5h-5z" fill="#70a034"/><path d="m362.5 368.5h35v5h-35z" fill="#6b90d5"/><path d="m362.5 378.5h35v5h-35z" fill="#6b90d5"/><path d="m362.5 388.5h35v5h-35z" fill="#6b90d5"/><path d="m352.5 388.5h5v5h-5z" fill="#ea5b03"/><path d="m352.5 368.5h5v5h-5z" fill="#70a034"/><path d="m347.5 408.5h55v35h-55z" fill="#e9faf8"/><path d="m362.5 413.5h35v5h-35z" fill="#6b90d5"/><path d="m362.5 423.5h35v5h-35z" fill="#6b90d5"/><path d="m362.5 433.5h35v5h-35z" fill="#6b90d5"/><path d="m352.5 433.5h5v5h-5z" fill="#ea5b03"/><path d="m352.5 413.5h5v5h-5z" fill="#ea5b03"/><path d="m352.5 423.5h5v5h-5z" fill="#ea5b03"/><path d="m347.5 338.5h15v15h-15z" fill="#e9faf8"/><path d="m367.5 338.5h35v10h-35z" fill="#e9faf8"/><path d="m477.5 318.5h95v145h-95z" fill="url(#m)"/><path d="m482.5 323.5h85v135h-85z" fill="url(#n)"/><path d="m487.5 328.5h75v125h-75z" fill="url(#o)"/><path d="m497.5 363.5h55v35h-55z" fill="#e9faf8"/><path d="m502.5 378.5h5v5h-5z" fill="#ea5b03"/><path d="m512.5 368.5h35v5h-35z" fill="#6b90d5"/><path d="m512.5 378.5h35v5h-35z" fill="#6b90d5"/><path d="m512.5 388.5h35v5h-35z" fill="#6b90d5"/><path d="m502.5 388.5h5v5h-5z" fill="#ea5b03"/><path d="m502.5 368.5h5v5h-5z" fill="#ea5b03"/><path d="m497.5 408.5h55v35h-55z" fill="#e9faf8"/><path d="m512.5 413.5h35v5h-35z" fill="#6b90d5"/><path d="m512.5 423.5h35v5h-35z" fill="#6b90d5"/><path d="m512.5 433.5h35v5h-35z" fill="#6b90d5"/><path d="m502.5 433.5h5v5h-5z" fill="#ea5b03"/><path d="m502.5 413.5h5v5h-5z" fill="#ea5b03"/><path d="m502.5 423.5h5v5h-5z" fill="#ea5b03"/><path d="m497.5 338.5h15v15h-15z" fill="#e9faf8"/><path d="m517.5 338.5h35v10h-35z" fill="#e9faf8"/><path d="m252.5 48.5h95v145h-95z" fill="url(#p)"/><path d="m257.5 53.5h85v135h-85z" fill="url(#q)"/><path d="m262.5 58.5h75v125h-75z" fill="url(#r)"/><path d="m272.5 93.5h55v45h-55z" fill="#e9faf8"/><path d="m277.5 108.5h5v5h-5z" fill="#70a034"/><path d="m287.5 98.5h35v5h-35z" fill="#6b90d5"/><path d="m287.5 108.5h35v5h-35z" fill="#6b90d5"/><path d="m287.5 118.5h35v5h-35z" fill="#6b90d5"/><path d="m277.5 118.5h5v5h-5z" fill="#ea5b03"/><path d="m277.5 98.5h5v5h-5z" fill="#70a034"/><path d="m272.5 68.5h15v15h-15z" fill="#e9faf8"/><path d="m292.5 68.5h35v10h-35z" fill="#e9faf8"/><path d="m287.5 128.5h35v5h-35z" fill="#6b90d5"/><path d="m277.5 128.5h5v5h-5z" fill="#ea5b03"/><g fill="#859392" stroke="#859392" stroke-linejoin="round" stroke-width=".625"><path d="m208.029 207.163 38.861-7.606-24.676 30.97c.888-9.979-4.871-19.397-14.185-23.364z"/><path d="m317.398 246.109-.657-39.593 26.149 29.735c-9.665-2.627-19.951 1.386-25.492 9.858z"/><path d="m254.007 236.213 26.15-29.735-.657 39.592c-5.384-8.447-15.693-12.397-25.493-9.857z"/><path d="m378.729 230.62-24.676-30.97 38.861 7.606c-9.262 3.815-14.962 13.269-14.185 23.364z"/></g></svg>