<svg height="24" width="24" xmlns="http://www.w3.org/2000/svg" xmlns:xlink="http://www.w3.org/1999/xlink">
    <linearGradient id="a" gradientUnits="userSpaceOnUse" x1="10.915961" x2="21.655145" y1="16.288116" y2="16.288116">
        <stop offset="0" stop-color="#90c50e"/>
        <stop offset="1" stop-color="#70a034"/>
    </linearGradient>
    <linearGradient id="b" gradientUnits="userSpaceOnUse" x1="10.915961" x2="21.655146" y1="16.288116" y2="16.288116">
        <stop offset="0" stop-color="#b3e810"/>
        <stop offset="1" stop-color="#90c60d"/>
    </linearGradient>
    <linearGradient id="c" gradientUnits="userSpaceOnUse" x1="10.983081" x2="21.520906" y1="15.909842" y2="16.047396">
        <stop offset="0" stop-color="#d9f991"/>
        <stop offset="1" stop-color="#a2d22f"/>
    </linearGradient>
    <linearGradient id="d" gradientUnits="userSpaceOnUse" x1="3.93947161162" x2="14.06052838838" y1="9.00005663766"
                    y2="9.00005663766">
        <stop offset="0" stop-color="#95bff8"/>
        <stop offset="1" stop-color="#7ca4eb"/>
    </linearGradient>
    <linearGradient id="e" gradientUnits="userSpaceOnUse" x1="1.34906094362" x2="16.65093905638" y1="9.00008997024"
                    y2="9.00008997024">
        <stop offset="0" stop-color="#bbe0f7"/>
        <stop offset="1" stop-color="#82b4fb"/>
    </linearGradient>
    <linearGradient id="f" gradientUnits="userSpaceOnUse" x1="-1.6" x2="19.6" y1="8.9999728" y2="8.9999728">
        <stop offset="0" stop-color="#76a1f0"/>
        <stop offset="1" stop-color="#6b90d5"/>
    </linearGradient>
    <path d="m9 0c-4.9705627 0-9 4.0294373-9 9 0 4.713401 3.6367814 8.581219 8.25 8.96875-.1588581-.628855-.25-1.290544-.25-1.96875 0-4.418278 3.581722-8 8-8 .678206 0 1.339895.0911419 1.96875.25-.387531-4.6132186-4.255349-8.25-8.96875-8.25z"
          fill="url(#f)"/>
    <path d="m9 2c-3.8659933 0-7 3.1340067-7 7 0 3.524819 2.6100309 6.41897 6 6.90625.0507-4.342632 3.563618-7.85555 7.90625-7.90625-.48728-3.3899691-3.381431-6-6.90625-6z"
          fill="url(#e)"/>
    <path d="m21.655145 16.288116a5.3695922 5.5021749 0 1 1 -10.739184 0 5.3695922 5.5021749 0 1 1 10.739184 0z"
          fill="url(#a)" fill-rule="evenodd" transform="matrix(1.3036372 0 0 1.2722242 -4.230453 -3.7221)"/>
    <path d="m21.655145 16.288116a5.3695922 5.5021749 0 1 1 -10.739184 0 5.3695922 5.5021749 0 1 1 10.739184 0z"
          fill="url(#b)" fill-rule="evenodd" stroke="url(#c)" stroke-width="1.630634"
          transform="matrix(.93118039 0 0 .90873157 1.795212 2.2385)"/>
    <path d="m9 4.375c-2.5570676 0-4.625 2.0679324-4.625 4.625 0 2.354528 1.7565233 4.269306 4.03125 4.5625.7860609-2.452073 2.704177-4.3701891 5.15625-5.15625-.293194-2.2747267-2.207972-4.03125-4.5625-4.03125z"
          fill="url(#d)"/>
</svg>